<?xml version="1.0" standalone="no"?><!DOCTYPE svg PUBLIC "-//W3C//DTD SVG 1.1//EN" "http://www.w3.org/Graphics/SVG/1.1/DTD/svg11.dtd"><svg t="1538118522784" class="icon" style="" viewBox="0 0 1024 1024" version="1.1" xmlns="http://www.w3.org/2000/svg" p-id="5666" xmlns:xlink="http://www.w3.org/1999/xlink" width="200" height="200"><defs><style type="text/css"></style></defs><path d="M191.488 169.984c20.48-20.48 54.272-20.48 74.752 0l272.896 272.384c20.48 20.48 20.48 54.272 0 74.752s-54.272 20.48-74.752 0L191.488 244.736c-20.48-20.48-20.48-53.76 0-74.752z m718.336 269.312h-332.8c17.408 32.256 12.8 73.728-14.336 101.376-33.28 33.28-87.552 33.28-120.32 0L340.48 439.296H101.888C68.608 439.296 40.96 466.432 40.96 500.224c0 33.28 27.648 60.928 60.928 60.928h14.336L256.512 972.8H762.88l140.288-411.648h6.144c33.28 0 60.928-27.136 60.928-60.928 0-33.792-27.136-60.928-60.416-60.928zM262.144 599.552H752.64c17.408 0 31.232 14.336 31.232 31.232 0 17.408-13.824 31.232-31.232 31.232H262.144c-17.408 0-31.232-14.336-31.232-31.232 0-17.408 13.824-31.232 31.232-31.232z m68.608 247.296h356.864c16.896 0 31.232 14.336 31.232 31.232 0 17.408-14.336 31.232-31.232 31.232H330.752c-17.408 0-31.232-14.336-31.232-31.232s13.824-31.232 31.232-31.232z m-34.304-121.856h428.544c17.408 0 31.232 14.336 31.232 31.232 0 17.408-14.336 31.232-31.232 31.232H296.448c-17.408 0-31.232-13.824-31.232-31.232 0-16.896 13.824-31.232 31.232-31.232z" fill="#dbdbdb" p-id="5667"></path><path d="M542.72 37.888v178.176H453.632L631.808 394.24l178.176-178.176h-89.088V37.888H542.72z" fill="#dbdbdb" p-id="5668"></path></svg>