<?xml version="1.0" standalone="no"?><!DOCTYPE svg PUBLIC "-//W3C//DTD SVG 1.1//EN" "http://www.w3.org/Graphics/SVG/1.1/DTD/svg11.dtd"><svg t="1538118872799" class="icon" style="" viewBox="0 0 1321 1024" version="1.1" xmlns="http://www.w3.org/2000/svg" p-id="6572" xmlns:xlink="http://www.w3.org/1999/xlink" width="258.0078125" height="200"><defs><style type="text/css"></style></defs><path d="M1162.782764 267.641569c-1.984792-1.526763-4.427613-2.442821-6.717757-3.358879C1094.689131 233.594752 626.278217 0 616.812286 0h-10.840018L77.559565 264.28269c-2.290145 0.610705-4.732966 1.832116-6.717758 3.358879-6.107052 4.274937-9.771284 11.756076-9.771284 20.153272V366.881169c0 13.588191 10.076636 24.428209 22.290741 24.428209h49.772477v550.856121c0 45.039511 33.283435 81.529149 74.506038 81.529148h32.062025V547.191889h754.526316v476.808111h32.062025c41.069927 0 74.506038-36.642314 74.506038-81.529149V447.341583c0-3.664231-0.305353-7.175786-0.610705-10.840017v-45.039511h50.535858c12.519457 0 22.290741-10.840018 22.290741-24.42821v-79.086327c-0.458029-8.091844-4.427613-15.572983-10.229313-20.305949z m-737.273893 111.759057c0 3.053526-1.068734 6.259729-3.358878 8.70255-1.984792 2.137468-5.038318 3.664231-7.786492 3.664231H250.083793c-6.107052 0-11.145371-5.649023-11.14537-12.061428v-58.933055c0-3.053526 1.068734-6.259729 3.358878-8.70255 1.984792-2.137468 5.038318-3.664231 7.786492-3.664231h164.432384c6.107052 0 11.145371 5.649023 11.145371 12.061428v58.933055h-0.152677z m284.588639 0c0 6.870434-5.038318 12.061428-11.14537 12.061429H534.672432c-3.053526 0-5.8017-1.22141-7.786492-3.664232-1.984792-2.137468-3.358879-5.343671-3.358879-8.702549v-58.933055c0-3.053526 1.068734-6.259729 3.358879-8.70255 1.984792-2.137468 5.038318-3.664231 7.786492-3.664231h164.432384c6.107052 0 11.145371 5.649023 11.14537 12.061428v59.54376h-0.152676z m284.283286 0c0 6.870434-5.038318 12.061428-11.14537 12.061429H818.955718c-6.107052 0-11.145371-5.649023-11.145371-12.061429v-58.933055c0-6.870434 5.038318-12.061428 11.145371-12.061428H983.235426c6.107052 0 11.145371 5.649023 11.14537 12.061428v58.933055z" p-id="6573" fill="#dbdbdb"></path><path d="M430.54719 588.10914c-6.107052 0-11.145371 5.649023-11.145371 12.061428v170.539436c0 6.870434 5.038318 12.061428 11.145371 12.061429h157.56195c6.107052 0 11.145371-5.649023 11.14537-12.061429V600.170568c0-6.870434-5.038318-12.061428-11.14537-12.061428h-60.917847v40.91725h-35.420904v-40.91725H430.54719z m214.968242 0c-6.107052 0-11.145371 5.649023-11.145371 12.061428v170.539436c0 6.870434 5.038318 12.061428 11.145371 12.061429H803.077382c6.107052 0 11.145371-5.649023 11.14537-12.061429V600.170568c0-6.870434-5.038318-12.061428-11.14537-12.061428h-60.917847v40.91725h-35.420904v-40.91725h-61.223199zM480.472342 824.146712h-60.917847v40.917251h-35.420903v-40.917251h-60.917847c-6.107052 0-11.145371 5.649023-11.145371 12.061429v170.539436c0 6.870434 5.038318 12.061428 11.145371 12.061429h157.56195c6.107052 0 11.145371-5.649023 11.14537-12.061429V836.208141c-0.458029-6.412405-5.038318-12.061428-11.450723-12.061429z m215.120919 0h-60.917847v40.917251h-35.420904v-40.917251h-60.917847c-6.107052 0-11.145371 5.649023-11.14537 12.061429v170.539436c0 6.870434 5.038318 12.061428 11.14537 12.061429h157.56195c6.107052 0 11.145371-5.649023 11.145371-12.061429V836.208141c-0.305353-6.412405-5.343671-12.061428-11.450723-12.061429z m215.273595 0h-60.917848v40.917251h-35.420903v-40.917251h-60.917847c-6.107052 0-11.145371 5.649023-11.145371 12.061429v170.539436c0 6.870434 5.038318 12.061428 11.145371 12.061429h157.56195c6.107052 0 11.145371-5.649023 11.145371-12.061429V836.208141c-0.305353-6.412405-5.343671-12.061428-11.450723-12.061429z" p-id="6574" fill="#dbdbdb"></path></svg>