<?xml version="1.0" standalone="no"?><!DOCTYPE svg PUBLIC "-//W3C//DTD SVG 1.1//EN" "http://www.w3.org/Graphics/SVG/1.1/DTD/svg11.dtd"><svg t="1548309837392" class="icon" style="" viewBox="0 0 1025 1024" version="1.1" xmlns="http://www.w3.org/2000/svg" p-id="25843" xmlns:xlink="http://www.w3.org/1999/xlink" width="200.1953125" height="200"><defs><style type="text/css"></style></defs><path d="M60.892962 1024.000277c-33.575855 0-60.892962-27.297323-60.892962-60.866254L0 189.78539c0-33.575855 27.319085-60.89593 60.892962-60.89593l352.982723 0 255.695639 255.693661 0 578.522215c0 33.573877-27.322053 60.89593-60.89593 60.89593L60.892962 1024.001266 60.892962 1024.000277zM57.326851 966.711016l554.914656 0L612.241506 444.002156 354.45665 444.002156 354.45665 186.219279 57.326851 186.219279 57.326851 966.711016zM411.753825 386.675306l178.834806 0L411.753825 207.843467 411.753825 386.675306zM741.140859 895.136536l0-57.324872 225.564222 0L966.705081 315.112696 708.917257 315.112696 708.917257 57.329818 354.562496 57.329818C356.412324 25.40298 382.957845 0 415.321915 0l352.977777 0 255.730261 255.695639 0 578.554859c0 33.578823-27.317107 60.886038-60.89593 60.886038L741.140859 895.136536zM766.217399 257.785845l178.795238 0L766.217399 78.944114 766.217399 257.785845z" p-id="25844"></path></svg>