<?xml version="1.0" standalone="no"?><!DOCTYPE svg PUBLIC "-//W3C//DTD SVG 1.1//EN" "http://www.w3.org/Graphics/SVG/1.1/DTD/svg11.dtd"><svg t="1538119077968" class="icon" style="" viewBox="0 0 1024 1024" version="1.1" xmlns="http://www.w3.org/2000/svg" p-id="8206" xmlns:xlink="http://www.w3.org/1999/xlink" width="200" height="200"><defs><style type="text/css"></style></defs><path d="M315.840388 485.707171H209.828936v-70.856792c0-20.6012-1.1328-33.459043-3.399423-38.569433-2.266623-5.107321-7.263427-7.664563-14.982226-7.664564-8.730848 0-14.270005 3.107781-16.619516 9.317203-2.352581 6.212492-3.52529 19.641339-3.52529 40.289612v189.360765c0 19.810185 1.172709 32.734542 3.52529 38.778188 2.349511 6.043646 7.636934 9.06547 15.864316 9.06547 7.888667 0 13.051247-3.025916 15.486716-9.084912 2.431376-6.058996 3.651157-20.277836 3.651156-42.661636v-51.243081h106.011453v15.887852c0 42.197054-2.981914 72.123644-8.939603 89.772606-5.960759 17.655102-19.137873 33.121352-39.534412 46.403866-20.396539 13.278421-45.538149 19.919678-75.416644 19.919679-31.05939 0-56.657394-5.626137-76.8022-16.871249-20.144806-11.244089-33.490765-26.817786-40.037878-46.710858-6.547113-19.893072-9.82067-49.814546-9.82067-89.769537V451.964672c0-29.375028 1.006933-51.408857 3.021824-66.099441 2.01489-14.687514 8.014534-28.831652 18.004049-42.429345 9.985422-13.597693 23.834848-24.299429 41.548278-32.105208 17.709337-7.80578 38.062897-11.70867 61.063751-11.70867 31.224142 0 56.992015 6.03546 77.305667 18.10638 20.309558 12.07092 33.655518 27.120684 40.037878 45.140083 6.378268 18.020422 9.568936 46.057989 9.568936 84.1127v38.726zM353.863377 308.181965h75.039043c50.024324 0 83.892689 1.932002 101.605096 5.791913 17.709337 3.864004 32.145118 13.723559 43.311435 29.587875 11.162224 15.864316 16.745383 41.170678 16.745382 75.92011 0 31.727609-3.945869 53.049217-11.834536 63.959708-7.891737 10.914584-23.418362 17.461697-46.584991 19.641339 20.982894 5.205559 35.084053 12.173251 42.303478 20.900006 7.216355 8.730848 11.70867 16.745383 13.471826 24.047695 1.763157 7.302313 2.644223 27.408233 2.644223 60.308551v107.521852h-98.457405V580.387553c0-21.820981-1.723248-35.335786-5.16258-40.541345-3.442402-5.201465-12.464893-7.80578-27.069519-7.805779v183.820585H353.863377V308.181965z m106.011452 69.750597v90.651626c11.917424 0 20.270672-1.636267 25.054629-4.909823 4.783956-3.273557 7.176446-13.889335 7.176446-31.853476v-22.411429c0-12.925381-2.309602-21.403472-6.924713-25.432229-4.617158-4.02978-13.053294-6.04467-25.306362-6.044669zM958.708971 308.181965v407.678026h-92.665492l-0.125867-275.226389-36.890189 275.226389h-65.72184l-38.904055-268.932032-0.125867 268.932032H631.609145V308.181965h137.173173c4.068665 24.512277 8.262174 53.399187 12.583596 86.669941l15.052834 103.697757 24.362874-190.367698H958.708971z" fill="#dbdbdb" p-id="8207"></path></svg>