<?xml version="1.0" standalone="no"?><!DOCTYPE svg PUBLIC "-//W3C//DTD SVG 1.1//EN" "http://www.w3.org/Graphics/SVG/1.1/DTD/svg11.dtd"><svg t="1558667496410" class="icon" style="" viewBox="0 0 1024 1024" version="1.1" xmlns="http://www.w3.org/2000/svg" p-id="1603" xmlns:xlink="http://www.w3.org/1999/xlink" width="200" height="200"><defs><style type="text/css"></style></defs><path d="M686.84 403.675L462.688 628.508l-140.39-123.605a19.185 19.185 0 0 0-1.403-1.11c-6.842-6.929-16.342-11.227-26.849-11.227-20.84 0-37.734 16.894-37.734 37.734 0 12.214 5.808 23.067 14.808 29.963 0.416 0.443 0.846 0.876 1.308 1.283L441.1 710.051c3.031 2.669 6.748 4.237 10.827 4.794 13.834 4.611 30.43 0.826 42.241-11.021l246.118-246.866c16.115-16.164 17.215-41.195 2.456-55.909-14.759-14.714-39.787-13.538-55.902 2.626z" p-id="1604"></path><path d="M899.879 92.079H684.721V26.06c0-11.079-8.953-20.06-19.998-20.06H344.719c-11.045 0-19.998 8.981-19.998 20.06v66.019H109.563c-22.091 0-40 17.909-40 40v843.342c0 22.091 17.909 40 40 40h790.316c22.091 0 40-17.909 40-40V132.079c0-22.091-17.909-40-40-40zM887.63 924.791c0 19.439-15.758 35.197-35.197 35.197H157.009c-19.439 0-35.197-15.758-35.197-35.197V182.709c0-19.439 15.758-35.197 35.197-35.197h695.424c19.439 0 35.197 15.758 35.197 35.197v742.082z" p-id="1605"></path></svg>