<?xml version="1.0" standalone="no"?><!DOCTYPE svg PUBLIC "-//W3C//DTD SVG 1.1//EN" "http://www.w3.org/Graphics/SVG/1.1/DTD/svg11.dtd"><svg t="1556413501532" class="icon" style="" viewBox="0 0 1024 1024" version="1.1" xmlns="http://www.w3.org/2000/svg" p-id="7124" xmlns:xlink="http://www.w3.org/1999/xlink" width="200" height="200"><defs><style type="text/css"></style></defs><path d="M512 1024c-268.288 0-486.4-211.456-486.4-471.04 0-180.224 103.424-342.016 270.336-422.4 12.8-6.144 28.16-0.512 34.304 11.776 6.144 12.8 0.512 28.16-11.776 34.304C169.472 248.32 76.8 392.192 76.8 552.96c0 231.424 195.072 419.84 435.2 419.84s435.2-188.416 435.2-419.84c0-160.256-92.672-304.64-241.664-376.32-12.8-6.144-17.92-21.504-11.776-34.304 6.144-12.8 21.504-17.92 34.304-11.776C894.976 210.944 998.4 372.736 998.4 552.96c0 259.584-218.112 471.04-486.4 471.04z" fill="" p-id="7125"></path><path d="M512 512c-28.16 0-51.2-23.04-51.2-51.2V51.2c0-28.16 23.04-51.2 51.2-51.2s51.2 23.04 51.2 51.2v409.6c0 28.16-23.04 51.2-51.2 51.2z" fill="" p-id="7126"></path></svg>