<?xml version="1.0" standalone="no"?><!DOCTYPE svg PUBLIC "-//W3C//DTD SVG 1.1//EN" "http://www.w3.org/Graphics/SVG/1.1/DTD/svg11.dtd"><svg t="1558694885688" class="icon" style="" viewBox="0 0 1024 1024" version="1.1" xmlns="http://www.w3.org/2000/svg" p-id="1853" xmlns:xlink="http://www.w3.org/1999/xlink" width="200" height="200"><defs><style type="text/css"></style></defs><path d="M744.0896 993.24416l-3.2-0.44032-2.0224-0.50688-1.80736-0.6144-1.8432-0.77312-1.99168-1.09568-1.32096-0.90112-210.36544-115.16416a24.0128 24.0128 0 0 1-10.81856-12.18048 24.23296 24.23296 0 0 1-10.80832 12.18048l-211.41504 115.86048-1.4848 0.95232-1.38752 0.61952-0.7424 0.50176-2.7904 0.74752-3.712 0.6912-2.2528 0.14848-2.15552-0.1024-3.7376-0.55808-2.35008-0.61952-3.28704-1.49504-212.93568-116.74624a24.13568 24.13568 0 0 1-11.27424-13.37856h-0.96768l-0.3584-4.68992-0.07168-3.18976v-283.0592c0-10.00448 6.20032-19.1488 15.42656-22.76352l224.44544-106.68544V163.61472c0-9.98912 6.20032-19.13344 15.44192-22.75328l229.28384-109.0048v3.13856a23.75168 23.75168 0 0 1 9.76384 2.53952l204.36992 103.65952c8.78592 3.41504 14.72512 12.29312 14.72512 22.4256v274.59584l0.43008 2.57536a23.66976 23.66976 0 0 1 10.48064 2.57024l204.36992 103.64416c8.7808 3.42016 14.72 12.288 14.72 22.43072v290.93888h-1.39776a24.0896 24.0896 0 0 1-11.24864 13.36832l-211.38944 115.87072-1.41824 0.88064-1.41312 0.66048-0.75264 0.512-2.9696 0.768-3.8656 0.7424-1.75104 0.1024-2.1504-0.03584z m27.67872-63.33952l164.02944-89.89696v-227.49184l-164.02944 89.91744v227.47136z m-469.65248 0l164.01408-89.89696v-227.49184l-164.01408 89.91744v227.47136z m419.3024-2.06336v-227.4816l-68.43392-37.51936v111.8208l-56.66304-26.73664v-116.13696l-38.93248-21.32992v227.47136l164.02944 89.91232z m-469.89824 0v-227.4816l-68.42368-37.51936v75.9808l-56.74496-26.55232 0.08704-80.48128-38.92736-21.32992v227.47136l164.00896 89.91232z m494.1312-269.65504l160.41984-87.91552-62.848-31.89248-162.01216 84.47488 64.44032 35.33312z m-469.89312 0l160.42496-87.91552-62.85312-31.89248-162.00704 84.47488 64.4352 35.33312z m-124.38528-68.1984l159.59552-83.22048-28.62592-14.53056-165.65248 78.73536 34.68288 19.01568z m469.888 0l159.60064-83.22048-28.63104-14.53056-165.64736 78.73536 34.67776 19.01568z m-129.60768-62.30016v-227.4816l-68.42368-37.51936v50.3808l-56.66304-26.74176V231.63392l-38.9376-21.33504v227.47648l164.02432 89.91232z m51.23072-4.28544l164.01408-89.90208V206.01344l-164.01408 89.91232v227.47648z m-27.27936-271.04768l160.6144-90.01984-62.9504-31.93344-162.20672 86.56384 64.54272 35.38944zM402.72896 189.85472l159.73376-85.27872-38.8864-19.33312L357.888 165.97504l44.84096 23.87968z" fill="#ffffff" p-id="1854"></path><path d="M596.32128 747.92448s23.62368 77.6448 56.71936 26.3936l-56.71936-26.3936zM126.34624 712.2688s23.62368 77.6448 56.71936 26.3936l-56.71936-26.3936zM366.5664 285.9008s23.57248 78.41792 56.66304 27.16672L366.5664 285.9008z" fill="#ffffff" p-id="1855"></path></svg>