<?xml version="1.0" standalone="no"?><!DOCTYPE svg PUBLIC "-//W3C//DTD SVG 1.1//EN" "http://www.w3.org/Graphics/SVG/1.1/DTD/svg11.dtd"><svg t="1559178065689" class="icon" style="" viewBox="0 0 1024 1024" version="1.1" xmlns="http://www.w3.org/2000/svg" p-id="2153" xmlns:xlink="http://www.w3.org/1999/xlink" width="200" height="200"><defs><style type="text/css"></style></defs><path d="M512 64c247.136 0 448 200.864 448 448s-200.864 448-448 448S64 759.136 64 512 264.864 64 512 64z m0 832c211.968 0 384-172.032 384-384S723.968 128 512 128 128 300.032 128 512s172.032 384 384 384z m96-480a64 64 0 1 1 128 0 64 64 0 0 1-128 0zM288 416a64 64 0 1 1 128 0 64 64 0 0 1-128 0z m407.68 323.2c-17.184 11.2-40.32 5.984-51.52-11.2A155.904 155.904 0 0 0 512 655.616c-53.76 0-103.04 26.88-132.16 72.448-11.2 17.152-34.336 22.4-51.52 11.2a37.408 37.408 0 0 1-11.2-51.52A229.44 229.44 0 0 1 512 580.928a229.44 229.44 0 0 1 194.88 106.784c11.2 17.152 5.984 40.32-11.2 51.52z" fill="#CDCDCD" p-id="2154"></path></svg>