<?xml version="1.0" standalone="no"?><!DOCTYPE svg PUBLIC "-//W3C//DTD SVG 1.1//EN" "http://www.w3.org/Graphics/SVG/1.1/DTD/svg11.dtd"><svg t="1538119150996" class="icon" style="" viewBox="0 0 1024 1024" version="1.1" xmlns="http://www.w3.org/2000/svg" p-id="8940" xmlns:xlink="http://www.w3.org/1999/xlink" width="200" height="200"><defs><style type="text/css"></style></defs><path d="M518.951999 1023.20587L50.084059 921.430883a64.009992 64.009992 0 0 1-46.406994-60.488992L0.797065 152.359981a61.768992 61.768992 0 0 1 47.365994-59.207993L518.951999 0.977c25.923997-5.119999 57.927993 10.241999 57.927993 37.765995V985.119875c0 27.843996-32.003996 42.566995-57.927993 38.085995z m-271.719965-579.283926a92.172988 92.172988 0 0 0-79.05099-40.005995 92.172988 92.172988 0 0 0-79.37199 40.005995 150.101981 150.101981 0 0 0-25.922997 89.932988 150.101981 150.101981 0 0 0 25.922997 89.932989 91.852988 91.852988 0 0 0 79.37199 40.325995 91.852988 91.852988 0 0 0 79.05099-40.325995 150.101981 150.101981 0 0 0 25.923996-89.932989 150.101981 150.101981 0 0 0-25.923996-89.932988z m214.111972 83.531989h-2.239999 1.6l-47.686994-120.337985h-34.564996L277.63703 663.153916h38.404995l27.523996-70.089991h105.295987l27.523997 70.089991h38.084995z m-65.609991-69.129991l38.725995 96.013988h-76.81099zM168.181044 628.58792a57.607993 57.607993 0 0 1-52.167994-32.003996 117.776985 117.776985 0 0 1-16.321998-64.009992 119.376985 119.376985 0 0 1 16.001998-64.008991 58.247993 58.247993 0 0 1 52.487994-29.443997 58.247993 58.247993 0 0 1 52.487993 29.443997 121.617985 121.617985 0 0 1 15.681998 64.009991 121.297985 121.297985 0 0 1-16.001998 64.008992 57.927993 57.927993 0 0 1-52.167993 32.003996zM640.889984 735.163907v144.340981c0 27.523997 26.563997 32.004996 52.806993 32.004996H985.89994c26.243997 0 36.484995-2.88 36.484995-32.004996V145.317982a49.286994 49.286994 0 0 0-47.686994-50.246994H688.896978a49.286994 49.286994 0 0 0-48.006994 50.246994v109.775986h176.344977a48.006994 48.006994 0 0 1 0 96.013987H640.889984v96.013988h176.344977a48.006994 48.006994 0 0 1 0 96.013988H640.889984v96.013988h176.344977a48.006994 48.006994 0 0 1 0 96.013988z" p-id="8941" fill="#dbdbdb"></path></svg>