<?xml version="1.0" standalone="no"?><!DOCTYPE svg PUBLIC "-//W3C//DTD SVG 1.1//EN" "http://www.w3.org/Graphics/SVG/1.1/DTD/svg11.dtd"><svg t="1538118460479" class="icon" style="" viewBox="0 0 1024 1024" version="1.1" xmlns="http://www.w3.org/2000/svg" p-id="4858" xmlns:xlink="http://www.w3.org/1999/xlink" width="200" height="200"><defs><style type="text/css"></style></defs><path d="M0 860.3V168c0-9.8 8.8-18.6 18.6-18.6h33.9c10.8 0 18.6 8.8 18.6 18.6v307.9H474V168c0-9.8 7.9-18.6 18.6-18.6h33.6c9.8 0 18.6 8.8 18.6 18.6v692.3c0 9.8-8.8 18.6-18.6 18.6h-33.6c-10.8 0-18.6-8.8-18.6-18.6V546.1H71.2v314.2c0 9.8-7.9 18.6-18.6 18.6h-34c-9.8 0-18.6-8.8-18.6-18.6z m614.4-710.7h194.4c117.8 0 213.9 109.1 213.9 225.9 0 90.3-62.5 175.1-147.9 209.5l138 271.2c6.9 12.8 7.5 25.7-6.8 25.7h-47.1c-11.8 0-16.7-4.9-21.6-14.7L799.2 593.3H614.4v-70.8h189.5c75.6 0 147.4-64.6 147.4-145.1 0-74.6-58.5-156.5-147.4-156.5H614.4v-71.3z" fill="#dbdbdb" p-id="4859"></path></svg>