<?xml version="1.0" standalone="no"?><!DOCTYPE svg PUBLIC "-//W3C//DTD SVG 1.1//EN" "http://www.w3.org/Graphics/SVG/1.1/DTD/svg11.dtd"><svg t="1558666882493" class="icon" style="" viewBox="0 0 1024 1024" version="1.1" xmlns="http://www.w3.org/2000/svg" p-id="2046" xmlns:xlink="http://www.w3.org/1999/xlink" width="200" height="200"><defs><style type="text/css"></style></defs><path d="M145.664 236.8h732.8v599.552a55.936 55.936 0 0 1-55.936 55.936H201.6a55.936 55.936 0 0 1-55.936-55.936V236.8z" fill="#FFFFFF" p-id="2047"></path><path d="M822.4 911.488h-620.8a75.264 75.264 0 0 1-75.136-75.136V217.6h771.2v618.752a75.264 75.264 0 0 1-75.264 75.136zM164.864 256v580.352a36.864 36.864 0 0 0 36.736 36.736h620.8a36.864 36.864 0 0 0 36.864-36.736V256z" fill="#501192" p-id="2048"></path><path d="M145.664 236.8h732.8v206.976H145.664z" fill="#DED5EB" p-id="2049"></path><path d="M897.664 462.976H126.464V217.6h771.2z m-732.8-38.4h694.4V256H164.864z" fill="#501192" p-id="2050"></path><path d="M301.312 163.2h38.4v147.2h-38.4zM696.96 163.2h38.4v147.2h-38.4z" fill="#501192" p-id="2051"></path><path d="M479.232 647.168h65.664v38.4h-65.664z" fill="#EC1561" p-id="2052"></path></svg>