<?xml version="1.0" standalone="no"?><!DOCTYPE svg PUBLIC "-//W3C//DTD SVG 1.1//EN" "http://www.w3.org/Graphics/SVG/1.1/DTD/svg11.dtd"><svg t="1548292728186" class="icon" style="" viewBox="0 0 1024 1024" version="1.1" xmlns="http://www.w3.org/2000/svg" p-id="17752" xmlns:xlink="http://www.w3.org/1999/xlink" width="200" height="200"><defs><style type="text/css"></style></defs><path d="M676.266667 497.066667 676.266667 497.066667l-213.333333-234.666667 0 0C460.8 258.133333 454.4 256 448 256c-12.8 0-21.333333 8.533333-21.333333 21.333333 0 6.4 2.133333 10.666667 6.4 14.933333l0 0L631.466667 512l-200.533333 219.733333 0 0C428.8 736 426.666667 740.266667 426.666667 746.666667c0 12.8 8.533333 21.333333 21.333333 21.333333 6.4 0 12.8-2.133333 14.933333-6.4l0 0 213.333333-234.666667 0 0c4.266667-4.266667 6.4-8.533333 6.4-14.933333S680.533333 501.333333 676.266667 497.066667zM896 42.666667 128 42.666667C81.066667 42.666667 42.666667 81.066667 42.666667 128l0 768c0 46.933333 38.4 85.333333 85.333333 85.333333l768 0c46.933333 0 85.333333-38.4 85.333333-85.333333L981.333333 128C981.333333 81.066667 942.933333 42.666667 896 42.666667zM938.666667 896c0 23.466667-19.2 42.666667-42.666667 42.666667L128 938.666667c-23.466667 0-42.666667-19.2-42.666667-42.666667L85.333333 128c0-23.466667 19.2-42.666667 42.666667-42.666667l768 0c23.466667 0 42.666667 19.2 42.666667 42.666667L938.666667 896z" p-id="17753"></path></svg>