<?xml version="1.0" standalone="no"?><!DOCTYPE svg PUBLIC "-//W3C//DTD SVG 1.1//EN" "http://www.w3.org/Graphics/SVG/1.1/DTD/svg11.dtd"><svg t="1545630483094" class="icon" style="" viewBox="0 0 1024 1024" version="1.1" xmlns="http://www.w3.org/2000/svg" p-id="2658" xmlns:xlink="http://www.w3.org/1999/xlink" width="200" height="200"><defs><style type="text/css"></style></defs><path d="M828.8 556.8l-36.8-22.4c0-8 1.6-14.4 1.6-22.4s0-14.4-1.6-22.4l36.8-22.4c30.4-17.6 41.6-57.6 24-88l-56-97.6c-11.2-20.8-33.6-32-56-32-11.2 0-22.4 3.2-32 8L672 278.4c-12.8-8-25.6-16-38.4-22.4v-43.2c0-35.2-28.8-64-64-64h-112c-35.2 0-64 28.8-64 64V256c-14.4 6.4-27.2 14.4-38.4 22.4l-36.8-20.8c-9.6-6.4-20.8-8-32-8-22.4 0-43.2 11.2-56 32l-56 97.6c-17.6 30.4-6.4 70.4 24 88l36.8 22.4c0 8-1.6 14.4-1.6 22.4s0 14.4 1.6 22.4l-36.8 22.4c-30.4 17.6-41.6 57.6-24 88l56 97.6c11.2 20.8 33.6 32 56 32 11.2 0 22.4-3.2 32-8l36.8-20.8c12.8 8 25.6 16 38.4 22.4v43.2c0 35.2 28.8 64 64 64h112c35.2 0 64-28.8 64-64V768c14.4-6.4 27.2-14.4 38.4-22.4l36.8 20.8c9.6 6.4 20.8 8 32 8 22.4 0 43.2-11.2 56-32l56-97.6c16-32 6.4-70.4-24-88z m-19.2 62.4l-56 97.6c-3.2 4.8-8 8-14.4 8-3.2 0-4.8 0-8-1.6l-36.8-20.8-25.6-14.4-25.6 17.6c-9.6 6.4-20.8 12.8-32 19.2l-27.2 12.8v73.6c0 9.6-6.4 16-16 16h-112c-9.6 0-16-6.4-16-16v-73.6l-27.2-12.8c-11.2-6.4-22.4-11.2-32-19.2L355.2 688l-25.6 14.4-36.8 20.8c-3.2 1.6-4.8 1.6-8 1.6-6.4 0-11.2-3.2-14.4-8l-56-97.6c-3.2-4.8-1.6-9.6-1.6-12.8s3.2-6.4 8-9.6l36.8-22.4 25.6-14.4-3.2-30.4c0-6.4-1.6-12.8-1.6-19.2s0-12.8 1.6-19.2l3.2-30.4-25.6-12.8-36.8-22.4c-8-4.8-9.6-14.4-6.4-22.4l56-97.6c3.2-4.8 8-8 14.4-8 3.2 0 4.8 0 8 1.6l36.8 20.8 25.6 14.4 25.6-17.6c9.6-6.4 20.8-12.8 32-19.2l27.2-12.8v-73.6c0-9.6 6.4-16 16-16h112c9.6 0 16 6.4 16 16v73.6l27.2 12.8c11.2 6.4 22.4 11.2 32 19.2l25.6 17.6 25.6-14.4 36.8-20.8c3.2-1.6 4.8-1.6 8-1.6 6.4 0 11.2 3.2 14.4 8l56 97.6c4.8 8 1.6 17.6-6.4 22.4L766.4 448l-25.6 14.4 3.2 30.4c0 6.4 1.6 12.8 1.6 19.2s0 12.8-1.6 19.2l-3.2 30.4 25.6 14.4 36.8 22.4c4.8 3.2 6.4 8 8 9.6s1.6 6.4-1.6 11.2z" p-id="2659" fill="#707070"></path><path d="M512 392c-65.6 0-120 54.4-120 120s54.4 120 120 120 120-54.4 120-120-54.4-120-120-120z m0 192c-40 0-72-32-72-72s32-72 72-72 72 32 72 72-32 72-72 72z" p-id="2660" fill="#707070"></path></svg>