<?xml version="1.0" standalone="no"?><!DOCTYPE svg PUBLIC "-//W3C//DTD SVG 1.1//EN" "http://www.w3.org/Graphics/SVG/1.1/DTD/svg11.dtd"><svg t="1558666709980" class="icon" style="" viewBox="0 0 1024 1024" version="1.1" xmlns="http://www.w3.org/2000/svg" p-id="2551" xmlns:xlink="http://www.w3.org/1999/xlink" width="200" height="200"><defs><style type="text/css"></style></defs><path d="M882.548896 835.161121c-5.650697 0-10.233062-4.582365-10.233062-10.233062L872.315834 615.20964l-192.749956 0c-5.650697 0-10.233062-4.582365-10.233062-10.233062s4.582365-10.233062 10.233062-10.233062l202.983018 0c5.650697 0 10.233062 4.582365 10.233062 10.233062l0 219.950458C892.781958 830.578756 888.200616 835.161121 882.548896 835.161121z" p-id="2552"></path><path d="M344.436168 415.054017 141.450081 415.054017c-5.650697 0-10.233062-4.581342-10.233062-10.233062l0-219.949434c0-5.65172 4.582365-10.233062 10.233062-10.233062 5.65172 0 10.233062 4.581342 10.233062 10.233062l0 209.716372 192.753025 0c5.650697 0 10.233062 4.581342 10.233062 10.233062S350.086865 415.054017 344.436168 415.054017z" p-id="2553"></path><path d="M510.329453 894.456598c-91.735307 0-180.443675-32.984229-249.785973-92.877317-68.622914-59.270918-114.077152-140.994198-127.988999-230.118028-0.871857-5.583159 2.949168-10.816347 8.532327-11.689227 5.584182-0.870834 10.81737 2.948145 11.689227 8.532327 27.650757 177.12714 178.023556 305.686121 357.553419 305.686121 160.446225 0 299.604612-103.051027 346.276584-256.429277 1.645476-5.40715 7.361665-8.460696 12.769838-6.810103 5.40715 1.644453 8.456602 7.361665 6.810103 12.768815-11.791557 38.754652-29.644157 75.261101-53.058426 108.503203-23.093974 32.788777-51.056839 61.646012-83.10986 85.769432C673.378969 867.946828 593.954035 894.456598 510.329453 894.456598zM874.22123 443.99721c-4.723581 0-8.969279-3.289929-9.997702-8.095375C828.795645 270.243911 679.961898 150.009526 510.329453 150.009526c-156.105361 0-294.118668 99.457176-343.4277 247.487627-1.785669 5.363148-7.581676 8.263198-12.941753 6.474458-5.362124-1.785669-8.261151-7.580652-6.474458-12.941753 12.517081-37.579897 30.786167-72.894194 54.296627-104.963587 23.229051-31.68463 51.072189-59.525722 82.756819-82.750679 65.840544-48.26219 143.918807-73.771167 225.791489-73.771167 44.900629 0 88.872097 7.713682 130.692574 22.926152 40.410362 14.699794 77.849042 36.023448 111.276363 63.378469 67.061348 54.880935 113.917516 131.511219 131.939985 215.774345 1.180895 5.526877-2.340301 10.964726-7.867178 12.146645C875.649765 443.922509 874.929358 443.99721 874.22123 443.99721z" p-id="2554"></path></svg>