<?xml version="1.0" standalone="no"?><!DOCTYPE svg PUBLIC "-//W3C//DTD SVG 1.1//EN" "http://www.w3.org/Graphics/SVG/1.1/DTD/svg11.dtd"><svg t="1561098818472" class="icon" viewBox="0 0 1024 1024" version="1.1" xmlns="http://www.w3.org/2000/svg" p-id="9194" xmlns:xlink="http://www.w3.org/1999/xlink" width="200" height="200"><defs><style type="text/css"></style></defs><path d="M512 341.328c-73.728 0-124.128 59.476-112.004 132.2l18.4 110.1c7.272 43.676 49.328 79.34 93.604 79.34 44.228 0 86.376-35.664 93.636-79.34l18.34-110.1c12.12-72.724-38.28-132.2-111.976-132.2zM741.9 713.768L613.6 671.028c-26.928 26.296-63.128 43.14-101.6 43.14-38.472 0-74.672-16.844-101.6-43.14l-128.268 42.74c-23.724 7.928-43.2 34.9-43.2 59.936v113.768h546.14v-113.768c0-25.04-19.44-52-43.172-59.936z" p-id="9195"></path><path d="M648.528 273.072c-30.556 0-56.728 10.628-76.46 27.8 26.132 9.532 49.36 25.16 67.164 46.2 30.668 36.2 43.5 85.332 35.236 134.864l-18.34 110.1c-0.104 0.664-0.4 1.3-0.532 1.964 41.572-3.572 79.696-37.332 86.568-78.632l18.332-110.1c12.132-72.736-38.268-132.2-111.968-132.2zM384.728 347.076c24.74-29.204 59.74-48.1 98.744-54.408l3.96-23.94c12.148-72.736-38.256-132.2-111.96-132.2-73.74 0-124.14 59.476-112.008 132.2l18.4 110.1c5.664 34.172 32.728 63.172 65.436 74.304-0.132-39.404 12.768-76.936 37.428-106.056zM265.872 665.2l113.6-37.796c-5.24-11.232-9.54-22.928-11.6-35.368l-14.172-85c-30.168-5.032-58.072-19.56-79.832-40.8l-128.264 42.744c-23.736 7.924-43.204 34.888-43.204 59.92v113.772h131.532c9.668-7.568 20.4-13.6 31.94-17.472zM878.428 645.5l-128.296-42.732a152.248 152.248 0 0 1-66.1 37.764l74.036 24.668c44.596 14.9 78.2 61.532 78.2 108.504V819.2H921.6v-113.768c0-25.036-19.424-52-43.172-59.932z" p-id="9196"></path></svg>