<?xml version="1.0" standalone="no"?><!DOCTYPE svg PUBLIC "-//W3C//DTD SVG 1.1//EN" "http://www.w3.org/Graphics/SVG/1.1/DTD/svg11.dtd"><svg t="1558669669611" class="icon" style="" viewBox="0 0 1024 1024" version="1.1" xmlns="http://www.w3.org/2000/svg" p-id="2397" xmlns:xlink="http://www.w3.org/1999/xlink" width="200" height="200"><defs><style type="text/css"></style></defs><path d="M768 512a255.2 255.2 0 0 1-75 181l45.25 45.25a320 320 0 0 0 0-452.55L693 331a255.2 255.2 0 0 1 75 181z" p-id="2398"></path><path d="M896 512a382.8 382.8 0 0 1-112.47 271.53l45.25 45.25a448 448 0 0 0 0-633.57l-45.25 45.25A382.8 382.8 0 0 1 896 512z" p-id="2399"></path><path d="M715.651707 715.650121m-22.627417 22.627417a32 32 0 1 0 45.254834-45.254834 32 32 0 1 0-45.254834 45.254834Z" p-id="2400"></path><path d="M806.162728 806.150586m-22.627417 22.627417a32 32 0 1 0 45.254834-45.254834 32 32 0 1 0-45.254834 45.254834Z" p-id="2401"></path><path d="M715.64795 308.34505m-22.627417 22.627417a32 32 0 1 0 45.254834-45.254834 32 32 0 1 0-45.254834 45.254834Z" p-id="2402"></path><path d="M806.15795 217.83505m-22.627417 22.627417a32 32 0 1 0 45.254834-45.254834 32 32 0 1 0-45.254834 45.254834Z" p-id="2403"></path><path d="M544 125.54h-19.33a63.77 63.77 0 0 0-43.82 17.36L292.35 320H128a32 32 0 0 0-32 32v320a32 32 0 0 0 32 32h164.35l188.5 177.1a63.77 63.77 0 0 0 43.82 17.36H544a64.07 64.07 0 0 0 64-64V189.54a64.07 64.07 0 0 0-64-64zM256 656h-96V384h96z m288 178.46h-19.33L320 642.16V381.84l204.67-192.3H544v644.92z" p-id="2404"></path></svg>