<?xml version="1.0" standalone="no"?><!DOCTYPE svg PUBLIC "-//W3C//DTD SVG 1.1//EN" "http://www.w3.org/Graphics/SVG/1.1/DTD/svg11.dtd"><svg t="1538119208311" class="icon" style="" viewBox="0 0 1024 1024" version="1.1" xmlns="http://www.w3.org/2000/svg" p-id="9663" xmlns:xlink="http://www.w3.org/1999/xlink" width="200" height="200"><defs><style type="text/css"></style></defs><path d="M269.007187 364.457221l257.583901 0 0 35.261796-257.583901 0 0-35.261796Z" p-id="9664" fill="#dbdbdb"></path><path d="M294.157615 498.656834l232.497469 0L526.655084 464.546966 268.239235 464.930942l0 14.271108c0 7.9995 2.367852 13.503156 7.103556 16.510968C278.670583 497.696894 284.878195 498.656834 294.157615 498.656834z" p-id="9665" fill="#dbdbdb"></path><path d="M269.007187 261.295669l257.583901 0 0 38.269608-257.583901 0 0-38.269608Z" p-id="9666" fill="#dbdbdb"></path><path d="M760.240485 664.790451 283.278295 664.790451c-16.254984 0-24.382476 4.991688-24.382476 14.975064l0 31.486032c0 13.503156 8.127492 20.222736 24.382476 20.222736l478.114118 0c14.71908 0 22.142616-7.35954 22.142616-22.142616l0-21.75864C783.471033 672.405975 775.727517 664.790451 760.240485 664.790451z" p-id="9667" fill="#dbdbdb"></path><path d="M895.976001 0 128.023999 0C57.372414 0 0.031998 57.340416 0.031998 127.992l0 768.015999c0 70.651584 57.340416 127.992 127.992 127.992l767.952003 0c70.651584 0 127.992-57.340416 127.992-127.992L1023.968002 127.992C1023.968002 57.340416 966.627586 0 895.976001 0zM166.677583 272.174989c16.254984-11.263296 28.350228-24.510468 36.349728-39.741516C208.018999 222.450097 214.034623 200.307481 221.010187 166.069621l62.972064 0-6.3996 30.3981 249.008437 0L526.591088 164.597713l69.371664 0L595.962752 196.467721l251.632273 0 0 64.891944L596.026748 261.359665l0 38.269608 251.632273 0 0 64.891944L596.026748 364.521217l0 35.261796 251.632273 0 0 64.891944L596.026748 464.674958l0 34.109868 253.104181 0 0 69.371664L276.110743 568.15649c-19.262796 0-32.63796-1.855884-40.125492-5.631648C211.794763 551.19755 199.635523 533.406662 199.635523 509.216174L199.635523 324.331729C187.412287 331.307293 176.404975 336.554965 166.677583 340.074745L166.677583 272.174989zM853.610649 743.889507c0 16.510968-7.35954 30.71808-22.142616 42.749328-12.031248 9.727392-28.030248 14.655084-47.997 14.655084l-512.607962 0c-17.27892 0-30.206112-1.151928-38.781576-3.51978s-16.446972-6.975564-23.422536-13.75914c-12.991188-12.47922-19.51878-27.646272-19.51878-45.373164l0-81.722892c0-16.766952 6.847572-31.35804 20.606712-43.901256C218.258359 605.27417 226.641835 600.282482 234.897319 598.042622c7.9995-1.983876 20.030748-3.007812 36.029748-3.007812l512.607962 0c22.974564 0 41.021436 6.975564 54.012624 20.990688 10.751328 11.775264 16.126992 28.222236 16.126992 49.468908L853.674645 743.889507z" p-id="9668" fill="#dbdbdb"></path></svg>