<?xml version="1.0" standalone="no"?><!DOCTYPE svg PUBLIC "-//W3C//DTD SVG 1.1//EN" "http://www.w3.org/Graphics/SVG/1.1/DTD/svg11.dtd"><svg t="1538118071526" class="icon" style="" viewBox="0 0 1024 1024" version="1.1" xmlns="http://www.w3.org/2000/svg" p-id="2808" xmlns:xlink="http://www.w3.org/1999/xlink" width="200" height="200"><defs><style type="text/css"></style></defs><path d="M754.15625 701.84375c-13.921875 0-27 5.484375-37.125 15.1875s-15.1875 23.203125-15.1875 37.125 5.484375 27 15.1875 37.125c10.125 9.703125 23.203125 15.1875 37.125 15.1875 13.921875 0 27-5.484375 37.125-15.1875 20.25-20.25 20.25-53.578125 0-74.25-9.703125-9.703125-22.78125-15.1875-37.125-15.1875z" p-id="2809" fill="#dbdbdb"></path><path d="M873.125 646.578125l-234.140625-203.765625-54.421875-47.671875c14.34375-94.921875-3.796875-168.328125-53.578125-217.6875C484.15625 130.203125 421.296875 104.046875 354.21875 104.046875c-16.453125 0-32.90625 1.6875-48.9375 4.640625-20.25 4.21875-36.703125 18.984375-43.03125 38.8125-6.328125 20.25-0.84375 41.765625 14.34375 56.53125l77.203125 77.203125 9.703125 46.40625-35.859375 35.859375-46.40625-9.703125L204.03125 276.59375c-10.546875-10.546875-24.890625-16.453125-39.65625-16.453125-5.484375 0-10.96875 0.84375-16.453125 2.53125-19.828125 5.90625-34.59375 22.359375-38.8125 43.03125-16.453125 82.265625 9.28125 166.640625 68.34375 225.703125 37.546875 37.546875 93.65625 57.375 162 57.375 18.140625 0 36.703125-1.265625 55.6875-4.21875l248.90625 285.609375 0.421875 0.421875c32.0625 32.484375 72.140625 49.359375 115.59375 49.359375 42.609375 0 83.109375-16.875 113.0625-46.828125 62.4375-62.4375 62.4375-164.109375 0-226.546875zM760.0625 866.375c-28.265625 0-55.265625-11.390625-75.515625-31.640625l-268.734375-308.390625-4.21875 0.84375c-24.046875 5.0625-48.9375 7.59375-72.140625 7.59375-54 0-97.03125-14.34375-124.453125-41.765625-46.40625-46.40625-66.65625-113.0625-54-177.609375 0-1.265625 0.84375-1.6875 2.109375-2.109375h0.84375c0.84375 0 1.265625 0.421875 2.109375 0.84375l88.59375 88.59375 90.28125 18.5625 76.78125-76.78125L403.15625 254.65625l-88.59375-88.59375c-0.84375-0.84375-0.84375-1.6875-0.84375-2.53125 0.421875-0.84375 1.265625-1.6875 2.109375-2.109375 12.65625-2.53125 25.3125-3.796875 38.390625-3.796875 52.734375 0 102.09375 20.671875 139.21875 57.796875 55.6875 55.6875 42.1875 155.671875 34.171875 196.171875l-0.84375 4.21875 308.8125 269.15625c41.34375 41.34375 41.34375 109.265625 0 150.609375-20.25 19.828125-47.25 30.796875-75.515625 30.796875z" p-id="2810" fill="#dbdbdb"></path></svg>